STARTFONT 2.1
COMMENT Exported by Fony v1.4.7
FONT 9X15TG
SIZE 15 96 96
FONTBOUNDINGBOX 9 14 0 -11
STARTPROPERTIES 6
COPYRIGHT "Tangar @ http://mmoforum.org for TomeNET @ http://tomenet.eu"
RESOLUTION_X 96
RESOLUTION_Y 96
FONT_ASCENT 4
FONT_DESCENT 11
DEFAULT_CHAR 31
ENDPROPERTIES
CHARS 256
STARTCHAR 000
ENCODING 0
SWIDTH 648 0
DWIDTH 9 0
BBX 8 15 0 -11
BITMAP
80
80
00
40
00
00
11
00
04
00
08
11
00
20
40
ENDCHAR
STARTCHAR 001
ENCODING 1
SWIDTH 648 0
DWIDTH 9 0
BBX 7 1 1 -10
BITMAP
92
ENDCHAR
STARTCHAR 002
ENCODING 2
SWIDTH 648 0
DWIDTH 9 0
BBX 9 15 0 -11
BITMAP
FF80
FF80
FF80
FF80
FF80
FF80
FF80
FF80
FF80
FF80
FF80
FF80
FF80
FF80
FF80
ENDCHAR
STARTCHAR 003
ENCODING 3
SWIDTH 648 0
DWIDTH 9 0
BBX 8 1 1 -9
BITMAP
DB
ENDCHAR
STARTCHAR 004
ENCODING 4
SWIDTH 648 0
DWIDTH 9 0
BBX 3 3 3 -10
BITMAP
40
E0
40
ENDCHAR
STARTCHAR 005
ENCODING 5
SWIDTH 648 0
DWIDTH 9 0
BBX 9 2 0 -9
BITMAP
8A80
5100
ENDCHAR
STARTCHAR 006
ENCODING 6
SWIDTH 648 0
DWIDTH 9 0
BBX 9 3 0 -9
BITMAP
0400
AA80
4400
ENDCHAR
STARTCHAR 007
ENCODING 7
SWIDTH 648 0
DWIDTH 9 0
BBX 8 1 0 -9
BITMAP
F7
ENDCHAR
STARTCHAR 008
ENCODING 8
SWIDTH 648 0
DWIDTH 9 0
BBX 9 3 0 -6
BITMAP
4400
AA80
1100
ENDCHAR
STARTCHAR 009
ENCODING 9
SWIDTH 648 0
DWIDTH 9 0
BBX 5 3 3 -6
BITMAP
88
50
70
ENDCHAR
STARTCHAR 010
ENCODING 10
SWIDTH 648 0
DWIDTH 9 0
BBX 9 15 0 -11
BITMAP
FB80
FB80
0000
C780
EF80
EF80
C780
0000
FB80
FB80
0000
C780
EF80
EF80
C780
ENDCHAR
STARTCHAR 011
ENCODING 11
SWIDTH 648 0
DWIDTH 9 0
BBX 9 14 0 -11
BITMAP
FB80
FB80
0000
EF80
EF80
EF80
EF80
0000
FB80
FB80
0000
EF80
EF80
EF80
ENDCHAR
STARTCHAR 012
ENCODING 12
SWIDTH 648 0
DWIDTH 9 0
BBX 9 14 0 -11
BITMAP
F780
F580
0000
EF80
AF80
EF80
0000
FA80
FB80
0000
EF80
AF80
EF80
EF80
ENDCHAR
STARTCHAR 013
ENCODING 13
SWIDTH 648 0
DWIDTH 9 0
BBX 9 15 0 -11
BITMAP
FF80
FF80
7E80
6080
9F00
E080
7180
9F00
EE80
7180
5F00
8E00
E080
7E80
8100
ENDCHAR
STARTCHAR 014
ENCODING 14
SWIDTH 648 0
DWIDTH 9 0
BBX 9 14 0 -11
BITMAP
0200
0600
2700
3500
5F80
7B80
ED80
CA80
DE80
9F00
3F00
2F80
7F80
FF80
ENDCHAR
STARTCHAR 015
ENCODING 15
SWIDTH 648 0
DWIDTH 9 0
BBX 9 13 0 -11
BITMAP
0C00
1E00
3A00
7F00
FD00
BE00
EB00
5780
3F80
3F80
7F80
7F80
7F80
ENDCHAR
STARTCHAR 016
ENCODING 16
SWIDTH 648 0
DWIDTH 9 0
BBX 9 14 0 -11
BITMAP
FF80
9380
FF80
CC80
FF80
B180
FF80
C680
FE80
9980
FF80
E480
FF80
FF80
ENDCHAR
STARTCHAR 017
ENCODING 17
SWIDTH 648 0
DWIDTH 9 0
BBX 9 14 0 -11
BITMAP
FF80
9380
A680
CC80
9880
B180
E380
C680
8C80
9980
B280
E480
C880
FF80
ENDCHAR
STARTCHAR 018
ENCODING 18
SWIDTH 648 0
DWIDTH 9 0
BBX 9 14 0 -11
BITMAP
FF80
9080
B080
D080
9080
B080
F080
D080
9080
9080
B080
F080
D080
FF80
ENDCHAR
STARTCHAR 019
ENCODING 19
SWIDTH 648 0
DWIDTH 9 0
BBX 9 14 0 -11
BITMAP
FF80
A480
FF80
9280
FF80
8080
FF80
AB80
FF80
B880
FF80
BE80
FF80
FF80
ENDCHAR
STARTCHAR 020
ENCODING 20
SWIDTH 648 0
DWIDTH 9 0
BBX 9 14 0 -11
BITMAP
FF80
A480
C980
9280
FF80
8080
8A80
AB80
EE80
B880
8880
BE80
9C80
FF80
ENDCHAR
STARTCHAR 021
ENCODING 21
SWIDTH 648 0
DWIDTH 9 0
BBX 9 14 0 -11
BITMAP
FF80
A880
C880
9880
FF80
8080
8A80
AB80
EE80
B880
8880
BE80
9C80
FF80
ENDCHAR
STARTCHAR 022
ENCODING 22
SWIDTH 648 0
DWIDTH 9 0
BBX 8 15 0 -11
BITMAP
80
80
00
40
00
00
11
00
04
00
08
11
00
20
40
ENDCHAR
STARTCHAR 023
ENCODING 23
SWIDTH 648 0
DWIDTH 9 0
BBX 8 15 0 -11
BITMAP
80
80
00
40
00
00
11
00
04
00
08
11
00
20
40
ENDCHAR
STARTCHAR 024
ENCODING 24
SWIDTH 648 0
DWIDTH 9 0
BBX 8 15 0 -11
BITMAP
80
80
00
40
00
00
11
00
04
00
08
11
00
20
40
ENDCHAR
STARTCHAR 025
ENCODING 25
SWIDTH 648 0
DWIDTH 9 0
BBX 8 15 0 -11
BITMAP
80
80
00
40
00
00
11
00
04
00
08
11
00
20
40
ENDCHAR
STARTCHAR 026
ENCODING 26
SWIDTH 648 0
DWIDTH 9 0
BBX 8 15 0 -11
BITMAP
80
80
00
40
00
00
11
00
04
00
08
11
00
20
40
ENDCHAR
STARTCHAR 027
ENCODING 27
SWIDTH 648 0
DWIDTH 9 0
BBX 8 15 0 -11
BITMAP
80
80
00
40
00
00
11
00
04
00
08
11
00
20
40
ENDCHAR
STARTCHAR 028
ENCODING 28
SWIDTH 648 0
DWIDTH 9 0
BBX 8 15 0 -11
BITMAP
80
80
00
40
00
00
11
00
04
00
08
11
00
20
40
ENDCHAR
STARTCHAR 029
ENCODING 29
SWIDTH 648 0
DWIDTH 9 0
BBX 8 15 0 -11
BITMAP
80
80
00
40
00
00
11
00
04
00
08
11
00
20
40
ENDCHAR
STARTCHAR 030
ENCODING 30
SWIDTH 648 0
DWIDTH 9 0
BBX 8 15 0 -11
BITMAP
80
80
00
40
00
00
11
00
04
00
08
11
00
20
40
ENDCHAR
STARTCHAR 031
ENCODING 31
SWIDTH 648 0
DWIDTH 9 0
BBX 8 15 0 -11
BITMAP
80
80
00
40
00
00
11
00
04
00
08
11
00
20
40
ENDCHAR
STARTCHAR 032
ENCODING 32
SWIDTH 648 0
DWIDTH 9 0
BBX 0 0 0 0
BITMAP
ENDCHAR
STARTCHAR 033
ENCODING 33
SWIDTH 648 0
DWIDTH 9 0
BBX 3 11 4 -9
BITMAP
40
E0
E0
A0
E0
E0
E0
C0
00
40
C0
ENDCHAR
STARTCHAR 034
ENCODING 34
SWIDTH 648 0
DWIDTH 9 0
BBX 5 3 2 -1
BITMAP
D8
D8
88
ENDCHAR
STARTCHAR 035
ENCODING 35
SWIDTH 648 0
DWIDTH 9 0
BBX 7 7 1 -7
BITMAP
28
28
FE
28
FE
28
28
ENDCHAR
STARTCHAR 036
ENCODING 36
SWIDTH 648 0
DWIDTH 9 0
BBX 7 14 1 -10
BITMAP
08
08
3C
7E
DA
D8
7C
36
12
92
F6
7C
30
20
ENDCHAR
STARTCHAR 037
ENCODING 37
SWIDTH 648 0
DWIDTH 9 0
BBX 9 9 0 -9
BITMAP
6200
9600
9400
6C00
0800
1B80
1280
3380
2000
ENDCHAR
STARTCHAR 038
ENCODING 38
SWIDTH 648 0
DWIDTH 9 0
BBX 8 9 1 -9
BITMAP
3C
44
4C
38
70
C9
8E
C4
7F
ENDCHAR
STARTCHAR 039
ENCODING 39
SWIDTH 648 0
DWIDTH 9 0
BBX 3 5 3 -3
BITMAP
E0
E0
40
40
80
ENDCHAR
STARTCHAR 040
ENCODING 40
SWIDTH 648 0
DWIDTH 9 0
BBX 4 12 3 -10
BITMAP
10
20
20
40
C0
C0
C0
C0
40
20
20
10
ENDCHAR
STARTCHAR 041
ENCODING 41
SWIDTH 648 0
DWIDTH 9 0
BBX 4 12 3 -10
BITMAP
80
40
40
20
30
30
30
30
20
40
40
80
ENDCHAR
STARTCHAR 042
ENCODING 42
SWIDTH 648 0
DWIDTH 9 0
BBX 7 7 1 -8
BITMAP
92
54
38
FE
38
54
92
ENDCHAR
STARTCHAR 043
ENCODING 43
SWIDTH 648 0
DWIDTH 9 0
BBX 7 7 1 -8
BITMAP
38
38
FE
FE
FE
38
38
ENDCHAR
STARTCHAR 044
ENCODING 44
SWIDTH 648 0
DWIDTH 9 0
BBX 4 5 3 -10
BITMAP
70
70
30
60
C0
ENDCHAR
STARTCHAR 045
ENCODING 45
SWIDTH 648 0
DWIDTH 9 0
BBX 7 2 1 -6
BITMAP
FE
FE
ENDCHAR
STARTCHAR 046
ENCODING 46
SWIDTH 648 0
DWIDTH 9 0
BBX 3 3 3 -6
BITMAP
E0
E0
E0
ENDCHAR
STARTCHAR 047
ENCODING 47
SWIDTH 648 0
DWIDTH 9 0
BBX 6 10 2 -9
BITMAP
04
0C
0C
18
18
30
30
60
40
C0
ENDCHAR
STARTCHAR 048
ENCODING 48
SWIDTH 648 0
DWIDTH 9 0
BBX 7 10 1 -9
BITMAP
0C
3E
76
66
C6
C6
CC
CC
D8
70
ENDCHAR
STARTCHAR 049
ENCODING 49
SWIDTH 648 0
DWIDTH 9 0
BBX 5 9 2 -9
BITMAP
10
30
70
F0
30
30
30
30
78
ENDCHAR
STARTCHAR 050
ENCODING 50
SWIDTH 648 0
DWIDTH 9 0
BBX 7 10 1 -9
BITMAP
3C
76
66
46
04
0C
18
30
66
FE
ENDCHAR
STARTCHAR 051
ENCODING 51
SWIDTH 648 0
DWIDTH 9 0
BBX 6 10 1 -9
BITMAP
18
7C
4C
04
0C
3C
04
04
CC
78
ENDCHAR
STARTCHAR 052
ENCODING 52
SWIDTH 648 0
DWIDTH 9 0
BBX 5 10 2 -9
BITMAP
40
48
C8
88
F8
F8
10
10
10
10
ENDCHAR
STARTCHAR 053
ENCODING 53
SWIDTH 648 0
DWIDTH 9 0
BBX 7 9 1 -9
BITMAP
3E
20
60
78
0C
04
84
CC
78
ENDCHAR
STARTCHAR 054
ENCODING 54
SWIDTH 648 0
DWIDTH 9 0
BBX 6 9 2 -9
BITMAP
3C
64
C0
D8
FC
C4
C4
CC
78
ENDCHAR
STARTCHAR 055
ENCODING 55
SWIDTH 648 0
DWIDTH 9 0
BBX 7 9 1 -9
BITMAP
FE
84
0C
08
18
10
30
30
60
ENDCHAR
STARTCHAR 056
ENCODING 56
SWIDTH 648 0
DWIDTH 9 0
BBX 6 10 1 -9
BITMAP
18
3C
64
64
3C
78
4C
CC
CC
78
ENDCHAR
STARTCHAR 057
ENCODING 57
SWIDTH 648 0
DWIDTH 9 0
BBX 7 9 1 -9
BITMAP
3C
66
66
66
3C
0C
0C
98
F0
ENDCHAR
STARTCHAR 058
ENCODING 58
SWIDTH 648 0
DWIDTH 9 0
BBX 3 7 3 -9
BITMAP
40
E0
40
00
40
E0
40
ENDCHAR
STARTCHAR 059
ENCODING 59
SWIDTH 648 0
DWIDTH 9 0
BBX 3 9 3 -10
BITMAP
40
E0
40
00
40
E0
60
40
80
ENDCHAR
STARTCHAR 060
ENCODING 60
SWIDTH 648 0
DWIDTH 9 0
BBX 9 15 0 -11
BITMAP
0080
0080
0280
0280
0A80
0A80
2A80
AA80
AA80
2A80
0A80
0280
0280
0080
0080
ENDCHAR
STARTCHAR 061
ENCODING 61
SWIDTH 648 0
DWIDTH 9 0
BBX 7 4 1 -7
BITMAP
FE
00
00
FE
ENDCHAR
STARTCHAR 062
ENCODING 62
SWIDTH 648 0
DWIDTH 9 0
BBX 9 14 0 -11
BITMAP
8000
8000
A000
A000
A800
AA00
AA00
AA80
AA80
AA00
A800
A000
8000
8000
ENDCHAR
STARTCHAR 063
ENCODING 63
SWIDTH 648 0
DWIDTH 9 0
BBX 7 12 1 -10
BITMAP
3C
66
C2
02
06
0C
18
30
00
00
30
30
ENDCHAR
STARTCHAR 064
ENCODING 64
SWIDTH 648 0
DWIDTH 9 0
BBX 7 13 1 -10
BITMAP
38
38
38
10
38
7C
FE
BA
BA
2C
6C
64
C6
ENDCHAR
STARTCHAR 065
ENCODING 65
SWIDTH 648 0
DWIDTH 9 0
BBX 9 12 0 -10
BITMAP
3800
7C00
5E00
1E00
1300
3300
2300
7F00
7F80
6180
E180
E380
ENDCHAR
STARTCHAR 066
ENCODING 66
SWIDTH 648 0
DWIDTH 9 0
BBX 7 9 1 -8
BITMAP
F0
FC
C4
C4
FE
C2
C2
FE
FC
ENDCHAR
STARTCHAR 067
ENCODING 67
SWIDTH 648 0
DWIDTH 9 0
BBX 8 9 0 -8
BITMAP
3F
7F
71
E1
C0
C0
E0
73
3E
ENDCHAR
STARTCHAR 068
ENCODING 68
SWIDTH 648 0
DWIDTH 9 0
BBX 9 10 0 -9
BITMAP
FE00
7F00
4180
4180
4180
4180
4180
4380
7F00
FE00
ENDCHAR
STARTCHAR 069
ENCODING 69
SWIDTH 648 0
DWIDTH 9 0
BBX 7 10 1 -9
BITMAP
FE
FE
C0
C0
F0
C0
C0
C0
FE
FE
ENDCHAR
STARTCHAR 070
ENCODING 70
SWIDTH 648 0
DWIDTH 9 0
BBX 7 10 1 -9
BITMAP
FE
FE
C0
C0
F0
F8
C0
C0
C0
C0
ENDCHAR
STARTCHAR 071
ENCODING 71
SWIDTH 648 0
DWIDTH 9 0
BBX 9 11 0 -9
BITMAP
1E00
3F00
7180
6180
E000
C300
C780
6080
7180
7F80
1E00
ENDCHAR
STARTCHAR 072
ENCODING 72
SWIDTH 648 0
DWIDTH 9 0
BBX 7 10 1 -9
BITMAP
C6
C6
C6
FE
FE
C6
C6
C6
C6
C6
ENDCHAR
STARTCHAR 073
ENCODING 73
SWIDTH 648 0
DWIDTH 9 0
BBX 5 9 2 -8
BITMAP
F8
20
20
20
20
20
20
20
F8
ENDCHAR
STARTCHAR 074
ENCODING 74
SWIDTH 648 0
DWIDTH 9 0
BBX 9 11 0 -9
BITMAP
0780
0300
0300
0300
0300
0300
E300
4300
6300
7F00
1E00
ENDCHAR
STARTCHAR 075
ENCODING 75
SWIDTH 648 0
DWIDTH 9 0
BBX 9 11 0 -9
BITMAP
0300
E780
6680
4C00
4800
7800
7800
4C80
4680
6780
E300
ENDCHAR
STARTCHAR 076
ENCODING 76
SWIDTH 648 0
DWIDTH 9 0
BBX 7 9 1 -8
BITMAP
C0
C0
C0
C0
C0
C0
C0
C2
FE
ENDCHAR
STARTCHAR 077
ENCODING 77
SWIDTH 648 0
DWIDTH 9 0
BBX 9 10 0 -9
BITMAP
6180
6180
6380
7280
5E80
CC80
CC80
C480
E180
E180
ENDCHAR
STARTCHAR 078
ENCODING 78
SWIDTH 648 0
DWIDTH 9 0
BBX 8 11 0 -9
BITMAP
01
C3
E3
A3
B3
9B
9A
8E
86
86
80
ENDCHAR
STARTCHAR 079
ENCODING 79
SWIDTH 648 0
DWIDTH 9 0
BBX 9 9 0 -9
BITMAP
3E00
7F00
E180
E880
C080
C080
4180
6300
3E00
ENDCHAR
STARTCHAR 080
ENCODING 80
SWIDTH 648 0
DWIDTH 9 0
BBX 8 10 0 -9
BITMAP
FE
43
41
41
7F
7E
40
40
40
C0
ENDCHAR
STARTCHAR 081
ENCODING 81
SWIDTH 648 0
DWIDTH 9 0
BBX 9 11 0 -9
BITMAP
3C00
FE00
FF00
C300
8180
8080
8C80
8D80
C700
7F00
0180
ENDCHAR
STARTCHAR 082
ENCODING 82
SWIDTH 648 0
DWIDTH 9 0
BBX 9 10 0 -8
BITMAP
FC00
7E00
4600
4300
4300
7E00
4C00
4600
6780
6380
ENDCHAR
STARTCHAR 083
ENCODING 83
SWIDTH 648 0
DWIDTH 9 0
BBX 9 10 0 -8
BITMAP
1F00
3380
6080
6000
3C00
1F00
0180
C180
6180
3F00
ENDCHAR
STARTCHAR 084
ENCODING 84
SWIDTH 648 0
DWIDTH 9 0
BBX 9 9 0 -8
BITMAP
FF80
FF80
1C00
1C00
1C00
1C00
1C00
1C00
1C00
ENDCHAR
STARTCHAR 085
ENCODING 85
SWIDTH 648 0
DWIDTH 9 0
BBX 8 9 1 -8
BITMAP
C3
C3
C3
C3
C3
C3
C3
E7
7E
ENDCHAR
STARTCHAR 086
ENCODING 86
SWIDTH 648 0
DWIDTH 9 0
BBX 9 9 0 -8
BITMAP
F380
4100
4100
6300
2200
2600
3600
1400
1C00
ENDCHAR
STARTCHAR 087
ENCODING 87
SWIDTH 648 0
DWIDTH 9 0
BBX 7 9 1 -8
BITMAP
82
82
82
82
92
BA
EE
C6
86
ENDCHAR
STARTCHAR 088
ENCODING 88
SWIDTH 648 0
DWIDTH 9 0
BBX 9 10 0 -8
BITMAP
C180
4300
6600
3400
1C00
3C00
3600
6200
4300
C180
ENDCHAR
STARTCHAR 089
ENCODING 89
SWIDTH 648 0
DWIDTH 9 0
BBX 9 11 0 -8
BITMAP
C180
4100
6300
2200
3600
1C00
0800
0800
0800
0800
1C00
ENDCHAR
STARTCHAR 090
ENCODING 90
SWIDTH 648 0
DWIDTH 9 0
BBX 8 10 1 -8
BITMAP
40
FF
03
06
0C
18
18
30
61
FF
ENDCHAR
STARTCHAR 091
ENCODING 91
SWIDTH 648 0
DWIDTH 9 0
BBX 4 12 3 -9
BITMAP
F0
F0
80
80
80
80
80
80
80
80
F0
F0
ENDCHAR
STARTCHAR 092
ENCODING 92
SWIDTH 648 0
DWIDTH 9 0
BBX 6 10 1 -8
BITMAP
C0
40
60
20
30
10
18
08
0C
04
ENDCHAR
STARTCHAR 093
ENCODING 93
SWIDTH 648 0
DWIDTH 9 0
BBX 5 12 2 -10
BITMAP
F8
F8
18
18
98
18
18
18
18
18
F8
F8
ENDCHAR
STARTCHAR 094
ENCODING 94
SWIDTH 648 0
DWIDTH 9 0
BBX 8 6 1 -3
BITMAP
10
38
3C
7C
E6
C7
ENDCHAR
STARTCHAR 095
ENCODING 95
SWIDTH 648 0
DWIDTH 9 0
BBX 7 2 1 -10
BITMAP
FE
FE
ENDCHAR
STARTCHAR 096
ENCODING 96
SWIDTH 648 0
DWIDTH 9 0
BBX 5 6 2 -3
BITMAP
E0
E0
E0
20
30
18
ENDCHAR
STARTCHAR 097
ENCODING 97
SWIDTH 648 0
DWIDTH 9 0
BBX 7 7 1 -9
BITMAP
04
7C
CC
CC
CC
CC
76
ENDCHAR
STARTCHAR 098
ENCODING 98
SWIDTH 648 0
DWIDTH 9 0
BBX 7 11 1 -9
BITMAP
20
60
E0
60
7C
7E
62
62
66
FE
80
ENDCHAR
STARTCHAR 099
ENCODING 99
SWIDTH 648 0
DWIDTH 9 0
BBX 6 7 2 -9
BITMAP
38
7C
C4
80
80
C4
7C
ENDCHAR
STARTCHAR 100
ENCODING 100
SWIDTH 648 0
DWIDTH 9 0
BBX 7 10 1 -8
BITMAP
04
04
04
04
7C
CC
84
84
8C
FE
ENDCHAR
STARTCHAR 101
ENCODING 101
SWIDTH 648 0
DWIDTH 9 0
BBX 7 7 1 -9
BITMAP
3C
64
44
FC
C0
62
7E
ENDCHAR
STARTCHAR 102
ENCODING 102
SWIDTH 648 0
DWIDTH 9 0
BBX 7 10 1 -9
BITMAP
1C
14
10
10
12
FE
90
10
10
10
ENDCHAR
STARTCHAR 103
ENCODING 103
SWIDTH 648 0
DWIDTH 9 0
BBX 7 11 1 -11
BITMAP
18
3E
44
4C
7C
38
3C
68
C8
90
60
ENDCHAR
STARTCHAR 104
ENCODING 104
SWIDTH 648 0
DWIDTH 9 0
BBX 8 10 1 -9
BITMAP
40
C0
40
40
40
78
68
48
4D
C6
ENDCHAR
STARTCHAR 105
ENCODING 105
SWIDTH 648 0
DWIDTH 9 0
BBX 3 8 3 -8
BITMAP
40
00
00
C0
40
40
40
E0
ENDCHAR
STARTCHAR 106
ENCODING 106
SWIDTH 648 0
DWIDTH 9 0
BBX 7 11 1 -10
BITMAP
06
00
00
04
04
04
04
84
84
48
30
ENDCHAR
STARTCHAR 107
ENCODING 107
SWIDTH 648 0
DWIDTH 9 0
BBX 8 9 0 -10
BITMAP
40
46
4A
70
70
4C
47
43
80
ENDCHAR
STARTCHAR 108
ENCODING 108
SWIDTH 648 0
DWIDTH 9 0
BBX 6 11 2 -9
BITMAP
18
3C
24
6C
48
50
60
C0
C8
58
70
ENDCHAR
STARTCHAR 109
ENCODING 109
SWIDTH 648 0
DWIDTH 9 0
BBX 9 7 0 -9
BITMAP
3300
7F80
C980
C980
C980
8100
8300
ENDCHAR
STARTCHAR 110
ENCODING 110
SWIDTH 648 0
DWIDTH 9 0
BBX 8 7 1 -8
BITMAP
40
FC
4C
4C
4C
4D
C7
ENDCHAR
STARTCHAR 111
ENCODING 111
SWIDTH 648 0
DWIDTH 9 0
BBX 7 6 1 -8
BITMAP
7C
C6
82
8A
C6
7C
ENDCHAR
STARTCHAR 112
ENCODING 112
SWIDTH 648 0
DWIDTH 9 0
BBX 5 8 2 -10
BITMAP
F8
88
88
F8
80
80
80
80
ENDCHAR
STARTCHAR 113
ENCODING 113
SWIDTH 648 0
DWIDTH 9 0
BBX 8 9 1 -10
BITMAP
78
CC
C4
C4
7C
34
04
05
06
ENDCHAR
STARTCHAR 114
ENCODING 114
SWIDTH 648 0
DWIDTH 9 0
BBX 7 8 1 -9
BITMAP
40
70
7E
40
40
C0
C0
80
ENDCHAR
STARTCHAR 115
ENCODING 115
SWIDTH 648 0
DWIDTH 9 0
BBX 5 8 2 -9
BITMAP
70
C8
C0
70
18
08
98
70
ENDCHAR
STARTCHAR 116
ENCODING 116
SWIDTH 648 0
DWIDTH 9 0
BBX 6 8 1 -8
BITMAP
30
30
F0
3C
30
30
30
3C
ENDCHAR
STARTCHAR 117
ENCODING 117
SWIDTH 648 0
DWIDTH 9 0
BBX 6 5 1 -8
BITMAP
84
84
84
CC
78
ENDCHAR
STARTCHAR 118
ENCODING 118
SWIDTH 648 0
DWIDTH 9 0
BBX 9 7 0 -9
BITMAP
E380
4100
2100
2200
1200
0C00
0C00
ENDCHAR
STARTCHAR 119
ENCODING 119
SWIDTH 648 0
DWIDTH 9 0
BBX 9 6 0 -9
BITMAP
C080
4080
4900
3D00
3700
3200
ENDCHAR
STARTCHAR 120
ENCODING 120
SWIDTH 648 0
DWIDTH 9 0
BBX 7 7 1 -9
BITMAP
86
4C
38
30
30
68
C4
ENDCHAR
STARTCHAR 121
ENCODING 121
SWIDTH 648 0
DWIDTH 9 0
BBX 7 9 1 -10
BITMAP
C6
46
64
2C
38
18
10
A0
C0
ENDCHAR
STARTCHAR 122
ENCODING 122
SWIDTH 648 0
DWIDTH 9 0
BBX 7 7 1 -9
BITMAP
FE
06
0C
18
30
60
FE
ENDCHAR
STARTCHAR 123
ENCODING 123
SWIDTH 648 0
DWIDTH 9 0
BBX 5 11 1 -10
BITMAP
18
20
20
20
60
E0
60
20
20
20
18
ENDCHAR
STARTCHAR 124
ENCODING 124
SWIDTH 648 0
DWIDTH 9 0
BBX 1 11 4 -10
BITMAP
80
80
80
80
80
80
80
80
80
80
80
ENDCHAR
STARTCHAR 125
ENCODING 125
SWIDTH 648 0
DWIDTH 9 0
BBX 6 13 1 -10
BITMAP
E0
30
10
10
10
18
0C
18
10
10
10
30
E0
ENDCHAR
STARTCHAR 126
ENCODING 126
SWIDTH 648 0
DWIDTH 9 0
BBX 8 6 1 -8
BITMAP
73
DE
00
73
DE
8C
ENDCHAR
STARTCHAR 127
ENCODING 127
SWIDTH 648 0
DWIDTH 9 0
BBX 9 15 0 -11
BITMAP
FF80
FF80
FF80
FF80
FF80
FF80
FF80
FF80
FF80
FF80
FF80
FF80
FF80
FF80
FF80
ENDCHAR
STARTCHAR 128
ENCODING 128
SWIDTH 648 0
DWIDTH 9 0
BBX 9 14 0 -11
BITMAP
FF80
C180
9E80
8080
A400
2A80
AA80
2A00
2A80
2A00
2A80
AA80
2A80
2080
ENDCHAR
STARTCHAR 129
ENCODING 129
SWIDTH 648 0
DWIDTH 9 0
BBX 3 14 1 -11
BITMAP
C0
C0
C0
40
C0
C0
C0
E0
C0
C0
C0
C0
40
C0
ENDCHAR
STARTCHAR 130
ENCODING 130
SWIDTH 648 0
DWIDTH 9 0
BBX 8 11 1 -8
BITMAP
E7
E7
C3
C3
C3
C3
C3
C3
C7
7E
3C
ENDCHAR
STARTCHAR 131
ENCODING 131
SWIDTH 648 0
DWIDTH 9 0
BBX 9 12 0 -10
BITMAP
1C00
1C00
1400
0800
1C00
3E00
7F00
DD80
1C00
3E00
0800
0800
ENDCHAR
STARTCHAR 132
ENCODING 132
SWIDTH 648 0
DWIDTH 9 0
BBX 9 8 0 -8
BITMAP
0800
0800
2A00
2A00
AA80
2A00
2A00
0800
ENDCHAR
STARTCHAR 133
ENCODING 133
SWIDTH 648 0
DWIDTH 9 0
BBX 9 13 0 -10
BITMAP
3E00
7700
3E80
EB00
BE80
7B00
EF80
BE80
5500
7F00
0800
0800
0800
ENDCHAR
STARTCHAR 134
ENCODING 134
SWIDTH 648 0
DWIDTH 9 0
BBX 9 10 0 -10
BITMAP
0200
0800
2D00
7F00
1E00
AB00
7E80
9400
2800
0800
ENDCHAR
STARTCHAR 135
ENCODING 135
SWIDTH 648 0
DWIDTH 9 0
BBX 9 13 0 -10
BITMAP
2A00
5D00
2280
8C00
6D00
B800
2F00
1900
6C00
2800
0800
0800
0800
ENDCHAR
STARTCHAR 136
ENCODING 136
SWIDTH 648 0
DWIDTH 9 0
BBX 9 15 0 -11
BITMAP
2480
2480
AB00
5000
D300
2C80
2C80
9100
6400
2280
4D00
9500
2280
2A80
5500
ENDCHAR
STARTCHAR 137
ENCODING 137
SWIDTH 648 0
DWIDTH 9 0
BBX 9 15 0 -11
BITMAP
8100
8000
0400
8080
1000
A200
2400
8000
5000
8100
2600
8800
9000
C000
D500
ENDCHAR
STARTCHAR 138
ENCODING 138
SWIDTH 648 0
DWIDTH 9 0
BBX 9 4 0 -6
BITMAP
4400
EE80
BB80
1100
ENDCHAR
STARTCHAR 139
ENCODING 139
SWIDTH 648 0
DWIDTH 9 0
BBX 9 13 0 -10
BITMAP
0800
2200
D500
8080
7580
BA80
8880
0800
0800
7F00
8880
8080
7F00
ENDCHAR
STARTCHAR 140
ENCODING 140
SWIDTH 648 0
DWIDTH 9 0
BBX 9 10 0 -11
BITMAP
0180
0A00
3F80
7280
4400
B780
BF00
5280
BC80
3A80
ENDCHAR
STARTCHAR 141
ENCODING 141
SWIDTH 648 0
DWIDTH 9 0
BBX 9 15 0 -11
BITMAP
A980
A900
F980
7100
3180
7100
7980
FD00
FF00
FF00
FE00
FE00
AA00
AA00
AA00
ENDCHAR
STARTCHAR 142
ENCODING 142
SWIDTH 648 0
DWIDTH 9 0
BBX 9 15 0 -11
BITMAP
0800
1C00
7F00
FF80
7F00
BE80
DD80
EB80
F780
F780
F780
F700
7700
1600
0800
ENDCHAR
STARTCHAR 143
ENCODING 143
SWIDTH 648 0
DWIDTH 9 0
BBX 8 15 0 -11
BITMAP
80
80
00
40
00
00
11
00
04
00
08
11
00
20
40
ENDCHAR
STARTCHAR 144
ENCODING 144
SWIDTH 648 0
DWIDTH 9 0
BBX 8 15 0 -11
BITMAP
80
80
00
40
00
00
11
00
04
00
08
11
00
20
40
ENDCHAR
STARTCHAR 145
ENCODING 145
SWIDTH 648 0
DWIDTH 9 0
BBX 9 15 0 -11
BITMAP
FE80
FE80
DD80
3F00
DF80
F580
FF80
7F80
FF80
FF80
7680
FF80
FF80
AF80
FF00
ENDCHAR
STARTCHAR 146
ENCODING 146
SWIDTH 648 0
DWIDTH 9 0
BBX 9 15 0 -11
BITMAP
FF80
FF80
7E80
6680
8100
FF80
7E80
6680
FF80
7E80
6680
8100
FF80
7E80
6680
ENDCHAR
STARTCHAR 147
ENCODING 147
SWIDTH 648 0
DWIDTH 9 0
BBX 7 11 1 -9
BITMAP
10
38
6C
D6
BA
EE
BA
D6
6C
38
10
ENDCHAR
STARTCHAR 148
ENCODING 148
SWIDTH 648 0
DWIDTH 9 0
BBX 9 15 0 -11
BITMAP
7980
7980
3580
3300
0000
F780
F780
0000
FF80
FD80
F100
0000
7380
7B80
7380
ENDCHAR
STARTCHAR 149
ENCODING 149
SWIDTH 648 0
DWIDTH 9 0
BBX 9 15 0 -11
BITMAP
FF80
FF80
7E80
F580
4B80
2A80
DC80
F580
3F80
F680
AF80
D900
9680
5E80
FA80
ENDCHAR
STARTCHAR 150
ENCODING 150
SWIDTH 648 0
DWIDTH 9 0
BBX 9 13 0 -11
BITMAP
7B00
E980
0000
8380
EE80
A780
0000
F300
BA80
0000
C680
CB80
EF80
ENDCHAR
STARTCHAR 151
ENCODING 151
SWIDTH 648 0
DWIDTH 9 0
BBX 9 10 0 -9
BITMAP
0080
0100
6280
FB00
BE80
9D00
0000
E380
B700
9C00
ENDCHAR
STARTCHAR 152
ENCODING 152
SWIDTH 648 0
DWIDTH 9 0
BBX 9 10 0 -8
BITMAP
0080
0180
0380
0700
0E00
5C00
3800
3000
4800
8000
ENDCHAR
STARTCHAR 153
ENCODING 153
SWIDTH 648 0
DWIDTH 9 0
BBX 8 15 0 -11
BITMAP
80
80
F0
7C
7E
67
63
7E
7F
61
61
3F
5E
70
E0
ENDCHAR
STARTCHAR 154
ENCODING 154
SWIDTH 648 0
DWIDTH 9 0
BBX 9 11 0 -9
BITMAP
0080
3F80
7F80
7380
E980
F000
C000
C000
F000
7F00
7E00
ENDCHAR
STARTCHAR 155
ENCODING 155
SWIDTH 648 0
DWIDTH 9 0
BBX 9 11 0 -9
BITMAP
3F00
3F80
3980
7880
E880
7880
3880
3880
3980
3F80
3E00
ENDCHAR
STARTCHAR 156
ENCODING 156
SWIDTH 648 0
DWIDTH 9 0
BBX 9 11 0 -9
BITMAP
FF00
6980
3980
3880
3880
3880
3880
3980
2980
7F80
FF00
ENDCHAR
STARTCHAR 157
ENCODING 157
SWIDTH 648 0
DWIDTH 9 0
BBX 8 15 0 -11
BITMAP
80
80
00
40
00
00
11
00
04
00
08
11
00
20
40
ENDCHAR
STARTCHAR 158
ENCODING 158
SWIDTH 648 0
DWIDTH 9 0
BBX 7 15 1 -11
BITMAP
10
10
30
20
60
42
FC
84
08
08
18
10
50
70
78
ENDCHAR
STARTCHAR 159
ENCODING 159
SWIDTH 648 0
DWIDTH 9 0
BBX 9 12 0 -10
BITMAP
8900
D200
5100
6D00
6D80
B500
5580
9D00
5D80
B280
4B80
6D80
ENDCHAR
STARTCHAR 160
ENCODING 160
SWIDTH 648 0
DWIDTH 9 0
BBX 9 13 0 -10
BITMAP
1C00
1C00
9C80
0000
DD80
DD80
1C00
0000
3600
3600
0000
7300
7300
ENDCHAR
STARTCHAR 161
ENCODING 161
SWIDTH 648 0
DWIDTH 9 0
BBX 9 15 0 -11
BITMAP
8C80
8C80
DE80
4C80
6100
7F80
EB80
AB80
A280
BE80
3E00
7300
4200
6380
8380
ENDCHAR
STARTCHAR 162
ENCODING 162
SWIDTH 648 0
DWIDTH 9 0
BBX 9 15 0 -11
BITMAP
0E00
0E00
5380
6380
C080
8D80
ED80
EF80
3F00
3F00
7F00
FF00
C300
6100
E300
ENDCHAR
STARTCHAR 163
ENCODING 163
SWIDTH 648 0
DWIDTH 9 0
BBX 9 15 0 -11
BITMAP
0280
0280
0380
0100
0180
0080
0180
7B80
FF80
BF80
FF80
FF00
9F00
1C00
3000
ENDCHAR
STARTCHAR 164
ENCODING 164
SWIDTH 648 0
DWIDTH 9 0
BBX 9 15 0 -11
BITMAP
C000
C000
F800
D400
9C00
1800
6400
FF00
8980
DC00
3C00
7E00
7E00
CF00
6000
ENDCHAR
STARTCHAR 165
ENCODING 165
SWIDTH 648 0
DWIDTH 9 0
BBX 8 14 0 -11
BITMAP
18
24
18
00
3C
66
C3
99
81
BD
FF
7E
24
66
ENDCHAR
STARTCHAR 166
ENCODING 166
SWIDTH 648 0
DWIDTH 9 0
BBX 9 15 0 -11
BITMAP
0980
0F80
1F80
3780
3780
2F00
3F80
1A00
3F00
F000
7C00
3E00
3F00
0780
0100
ENDCHAR
STARTCHAR 167
ENCODING 167
SWIDTH 648 0
DWIDTH 9 0
BBX 9 11 0 -10
BITMAP
5000
7000
D000
7080
7E00
7F00
7F80
7F80
5B80
5280
5280
ENDCHAR
STARTCHAR 168
ENCODING 168
SWIDTH 648 0
DWIDTH 9 0
BBX 9 15 0 -11
BITMAP
3800
3800
0C80
0B00
1B00
DE80
7E80
7D80
3B00
3F00
1E00
0E00
6600
FF80
7D80
ENDCHAR
STARTCHAR 169
ENCODING 169
SWIDTH 648 0
DWIDTH 9 0
BBX 9 14 0 -10
BITMAP
8180
4100
A280
B280
DD80
FD00
EB80
FF80
3680
DD80
5D00
7F00
5D00
A280
ENDCHAR
STARTCHAR 170
ENCODING 170
SWIDTH 648 0
DWIDTH 9 0
BBX 9 15 0 -11
BITMAP
1800
1800
7E00
1800
3C00
2400
2400
C180
7F00
5D80
EB80
FF80
DD80
1C00
1800
ENDCHAR
STARTCHAR 171
ENCODING 171
SWIDTH 648 0
DWIDTH 9 0
BBX 9 14 0 -11
BITMAP
4000
8400
4900
6880
FF00
6700
4300
5900
C380
6780
3F00
4900
4900
C480
ENDCHAR
STARTCHAR 172
ENCODING 172
SWIDTH 648 0
DWIDTH 9 0
BBX 8 12 0 -9
BITMAP
1E
3D
67
27
3F
2E
2E
1C
58
70
40
80
ENDCHAR
STARTCHAR 173
ENCODING 173
SWIDTH 648 0
DWIDTH 9 0
BBX 9 8 0 -10
BITMAP
5080
7080
5080
7F80
7F80
7F80
F980
B280
ENDCHAR
STARTCHAR 174
ENCODING 174
SWIDTH 648 0
DWIDTH 9 0
BBX 9 13 0 -11
BITMAP
0780
0880
1580
2080
4680
2680
8080
4180
4100
F400
B000
6000
C000
ENDCHAR
STARTCHAR 175
ENCODING 175
SWIDTH 648 0
DWIDTH 9 0
BBX 9 13 0 -10
BITMAP
0600
0F00
0D00
0780
1B00
3C00
3C00
7A80
7900
F800
F800
EC00
3600
ENDCHAR
STARTCHAR 176
ENCODING 176
SWIDTH 648 0
DWIDTH 9 0
BBX 5 12 2 -10
BITMAP
E0
A0
E0
F0
38
38
70
B8
B8
28
28
28
ENDCHAR
STARTCHAR 177
ENCODING 177
SWIDTH 648 0
DWIDTH 9 0
BBX 9 14 0 -10
BITMAP
0180
0180
0180
1D80
1500
1500
1500
7F00
C300
8100
C300
FE00
3600
7700
ENDCHAR
STARTCHAR 178
ENCODING 178
SWIDTH 648 0
DWIDTH 9 0
BBX 8 13 1 -10
BITMAP
59
31
3B
5A
74
58
54
78
78
48
C8
88
8C
ENDCHAR
STARTCHAR 179
ENCODING 179
SWIDTH 648 0
DWIDTH 9 0
BBX 9 15 0 -11
BITMAP
4080
4080
6180
1E00
1A00
2F00
D100
C080
9E80
8080
0080
3300
6100
0000
8080
ENDCHAR
STARTCHAR 180
ENCODING 180
SWIDTH 648 0
DWIDTH 9 0
BBX 9 12 0 -10
BITMAP
0C00
0000
0180
1B80
7E80
FB80
B700
8F80
FE00
7E00
F200
6000
ENDCHAR
STARTCHAR 181
ENCODING 181
SWIDTH 648 0
DWIDTH 9 0
BBX 9 11 0 -10
BITMAP
1800
7F00
EF80
6000
7F80
3F80
0080
FF80
BF80
F000
E000
ENDCHAR
STARTCHAR 182
ENCODING 182
SWIDTH 648 0
DWIDTH 9 0
BBX 9 13 0 -10
BITMAP
4A80
EA80
4F80
5180
5B80
5180
7F80
5180
5F80
5100
5080
1080
2080
ENDCHAR
STARTCHAR 183
ENCODING 183
SWIDTH 648 0
DWIDTH 9 0
BBX 9 15 0 -11
BITMAP
8980
8980
5200
3C80
1700
7E80
9C00
0C00
7F80
CE80
1E00
1F00
3F80
7F80
3300
ENDCHAR
STARTCHAR 184
ENCODING 184
SWIDTH 648 0
DWIDTH 9 0
BBX 9 10 0 -8
BITMAP
8080
4D00
7200
3F00
DC80
3700
DC80
6E00
4D00
9180
ENDCHAR
STARTCHAR 185
ENCODING 185
SWIDTH 648 0
DWIDTH 9 0
BBX 9 15 0 -11
BITMAP
1200
1200
0C00
9200
4C00
F200
DD80
8A00
F680
E100
3780
4300
6100
6100
C180
ENDCHAR
STARTCHAR 186
ENCODING 186
SWIDTH 648 0
DWIDTH 9 0
BBX 9 13 0 -10
BITMAP
0080
1880
1400
0680
7280
A880
2280
DC80
2280
4080
8080
6480
7E00
ENDCHAR
STARTCHAR 187
ENCODING 187
SWIDTH 648 0
DWIDTH 9 0
BBX 9 13 0 -10
BITMAP
0400
0C00
1E00
3300
3F80
BF80
7E80
5F00
1F00
1F00
3F00
3F00
2100
ENDCHAR
STARTCHAR 188
ENCODING 188
SWIDTH 648 0
DWIDTH 9 0
BBX 9 15 0 -11
BITMAP
1800
9800
4000
3800
6800
F780
AF80
8D80
3980
1780
F500
4500
C200
8600
4300
ENDCHAR
STARTCHAR 189
ENCODING 189
SWIDTH 648 0
DWIDTH 9 0
BBX 9 15 0 -11
BITMAP
0500
0500
4F00
7A80
FB80
E180
C280
B280
E280
6B80
6980
5D80
7F80
0800
8400
ENDCHAR
STARTCHAR 190
ENCODING 190
SWIDTH 648 0
DWIDTH 9 0
BBX 9 15 0 -11
BITMAP
0F80
0F80
0A80
0F80
7F80
F880
9A80
9F80
BF00
BF00
FF00
3F00
7700
E380
4380
ENDCHAR
STARTCHAR 191
ENCODING 191
SWIDTH 648 0
DWIDTH 9 0
BBX 9 13 0 -11
BITMAP
0180
0780
0300
1F80
3E00
7F00
FF00
FF80
FC00
AC00
B600
8000
4000
ENDCHAR
STARTCHAR 192
ENCODING 192
SWIDTH 648 0
DWIDTH 9 0
BBX 9 12 0 -10
BITMAP
0C00
0F00
1D00
8C00
CF00
DF80
7C80
1C00
3C00
2800
2400
1200
ENDCHAR
STARTCHAR 193
ENCODING 193
SWIDTH 648 0
DWIDTH 9 0
BBX 9 13 0 -11
BITMAP
3E00
4100
8080
9E80
A280
A280
AA80
A680
9E80
E100
3F80
0080
0080
ENDCHAR
STARTCHAR 194
ENCODING 194
SWIDTH 648 0
DWIDTH 9 0
BBX 9 8 0 -11
BITMAP
1000
3C00
5F00
FF80
BF80
0080
0100
0200
ENDCHAR
STARTCHAR 195
ENCODING 195
SWIDTH 648 0
DWIDTH 9 0
BBX 9 15 0 -11
BITMAP
0300
7980
E880
FC80
BE80
3F80
EF80
CF80
1F80
3F80
2F80
0F80
1F00
1B00
0900
ENDCHAR
STARTCHAR 196
ENCODING 196
SWIDTH 648 0
DWIDTH 9 0
BBX 9 15 0 -11
BITMAP
1800
7C00
DC00
FE00
1E00
FF00
3F80
7F80
DF80
9E80
3E80
3E80
3600
3200
6600
ENDCHAR
STARTCHAR 197
ENCODING 197
SWIDTH 648 0
DWIDTH 9 0
BBX 9 15 0 -11
BITMAP
1C00
1C00
0800
1C00
9480
C180
8880
3600
0800
3600
0800
3600
0000
1400
2200
ENDCHAR
STARTCHAR 198
ENCODING 198
SWIDTH 648 0
DWIDTH 9 0
BBX 9 15 0 -11
BITMAP
1E00
1E00
7200
0700
7F80
DB80
9580
3B80
4F80
CF80
8F80
0E80
0A80
1A80
3200
ENDCHAR
STARTCHAR 199
ENCODING 199
SWIDTH 648 0
DWIDTH 9 0
BBX 9 14 0 -11
BITMAP
0C00
1E00
0C00
2100
7F80
FF80
A380
B680
B680
3E00
7300
4200
6380
8380
ENDCHAR
STARTCHAR 200
ENCODING 200
SWIDTH 648 0
DWIDTH 9 0
BBX 9 9 0 -10
BITMAP
7E00
EB00
B700
C380
C980
E380
E380
6B00
7F00
ENDCHAR
STARTCHAR 201
ENCODING 201
SWIDTH 648 0
DWIDTH 9 0
BBX 9 15 0 -11
BITMAP
5480
1400
3E00
9400
8000
9D80
C180
E100
8300
5200
2200
3100
3200
1000
1200
ENDCHAR
STARTCHAR 202
ENCODING 202
SWIDTH 648 0
DWIDTH 9 0
BBX 8 13 0 -10
BITMAP
14
1C
1F
DE
51
78
7C
7E
32
0B
10
10
20
ENDCHAR
STARTCHAR 203
ENCODING 203
SWIDTH 648 0
DWIDTH 9 0
BBX 9 15 0 -11
BITMAP
0800
0800
0000
5500
C180
5D00
5500
C100
6300
5500
4900
4100
5500
E380
3600
ENDCHAR
STARTCHAR 204
ENCODING 204
SWIDTH 648 0
DWIDTH 9 0
BBX 9 15 0 -11
BITMAP
0E00
0E00
1E00
3200
2200
7F00
7F80
DE80
9E80
BE00
3F00
3F00
7F00
FF00
0F00
ENDCHAR
STARTCHAR 205
ENCODING 205
SWIDTH 648 0
DWIDTH 9 0
BBX 9 15 0 -11
BITMAP
A980
A900
F980
0100
F980
A900
FD80
8D00
FF80
DB00
3900
7900
F800
8800
CC00
ENDCHAR
STARTCHAR 206
ENCODING 206
SWIDTH 648 0
DWIDTH 9 0
BBX 9 15 0 -11
BITMAP
F800
F800
AE00
FF80
EE80
F580
3B80
7B80
4F00
CF00
9F00
1900
3B00
3300
3300
ENDCHAR
STARTCHAR 207
ENCODING 207
SWIDTH 648 0
DWIDTH 9 0
BBX 9 11 0 -9
BITMAP
2000
3800
0C00
FF00
1F80
FF80
3F80
6F80
D980
3000
6000
ENDCHAR
STARTCHAR 208
ENCODING 208
SWIDTH 648 0
DWIDTH 9 0
BBX 9 15 0 -11
BITMAP
0C00
0C00
0200
0800
E600
5A00
AF80
0C80
0A80
0700
1A00
1800
0200
0A00
3180
ENDCHAR
STARTCHAR 209
ENCODING 209
SWIDTH 648 0
DWIDTH 9 0
BBX 9 11 0 -9
BITMAP
FF00
6F80
3980
F980
6880
3880
1880
F880
6980
3980
1F80
ENDCHAR
STARTCHAR 210
ENCODING 210
SWIDTH 648 0
DWIDTH 9 0
BBX 9 13 0 -10
BITMAP
FE00
7F80
2F80
3980
F980
6880
3880
E880
7880
3980
E980
7F80
3F80
ENDCHAR
STARTCHAR 211
ENCODING 211
SWIDTH 648 0
DWIDTH 9 0
BBX 9 12 0 -10
BITMAP
7E00
6300
6180
6B80
6180
6D80
6180
6380
7F00
FF00
5280
5280
ENDCHAR
STARTCHAR 212
ENCODING 212
SWIDTH 648 0
DWIDTH 9 0
BBX 9 13 0 -10
BITMAP
7F80
F180
F080
B580
B080
3680
3680
3180
7F80
FF80
2980
5900
D200
ENDCHAR
STARTCHAR 213
ENCODING 213
SWIDTH 648 0
DWIDTH 9 0
BBX 9 10 0 -9
BITMAP
FF00
7F80
2180
E580
6480
2E80
E480
6180
3F80
7F00
ENDCHAR
STARTCHAR 214
ENCODING 214
SWIDTH 648 0
DWIDTH 9 0
BBX 9 11 0 -9
BITMAP
0400
0E00
1F00
3180
7180
FB00
4E00
6400
3100
3B00
1E00
ENDCHAR
STARTCHAR 215
ENCODING 215
SWIDTH 648 0
DWIDTH 9 0
BBX 7 12 1 -10
BITMAP
7C
FE
82
80
88
BC
EC
88
80
FE
FE
7C
ENDCHAR
STARTCHAR 216
ENCODING 216
SWIDTH 648 0
DWIDTH 9 0
BBX 8 13 0 -10
BITMAP
08
1C
3E
67
C3
66
3F
1E
34
24
2C
38
10
ENDCHAR
STARTCHAR 217
ENCODING 217
SWIDTH 648 0
DWIDTH 9 0
BBX 9 12 0 -10
BITMAP
1E80
3F80
7180
6080
E000
C100
C300
C780
E180
7180
7F00
FE00
ENDCHAR
STARTCHAR 218
ENCODING 218
SWIDTH 648 0
DWIDTH 9 0
BBX 8 10 1 -9
BITMAP
40
4C
CC
40
40
7C
7C
4C
4D
E7
ENDCHAR
STARTCHAR 219
ENCODING 219
SWIDTH 648 0
DWIDTH 9 0
BBX 8 12 1 -10
BITMAP
04
0E
4C
C6
4E
44
40
7C
7C
4C
4D
E7
ENDCHAR
STARTCHAR 220
ENCODING 220
SWIDTH 648 0
DWIDTH 9 0
BBX 9 12 0 -10
BITMAP
3080
E300
E300
6100
6300
7F00
6300
6100
6100
E300
F780
4100
ENDCHAR
STARTCHAR 221
ENCODING 221
SWIDTH 648 0
DWIDTH 9 0
BBX 9 11 0 -10
BITMAP
0580
0300
0000
0200
0E00
0780
0600
8300
CE00
FE00
7800
ENDCHAR
STARTCHAR 222
ENCODING 222
SWIDTH 648 0
DWIDTH 9 0
BBX 9 11 0 -9
BITMAP
0F80
0F80
0700
0300
0300
0300
F300
E300
4300
7F00
7E00
ENDCHAR
STARTCHAR 223
ENCODING 223
SWIDTH 648 0
DWIDTH 9 0
BBX 9 12 0 -10
BITMAP
F000
5000
7000
7000
5000
7000
5000
7080
7380
7E80
5B80
7F80
ENDCHAR
STARTCHAR 224
ENCODING 224
SWIDTH 648 0
DWIDTH 9 0
BBX 9 12 0 -10
BITMAP
FE00
7C00
7800
7800
7800
7800
7800
7880
7980
7F80
7F80
FF80
ENDCHAR
STARTCHAR 225
ENCODING 225
SWIDTH 648 0
DWIDTH 9 0
BBX 8 8 0 -10
BITMAP
FE
63
63
62
7C
60
60
40
ENDCHAR
STARTCHAR 226
ENCODING 226
SWIDTH 648 0
DWIDTH 9 0
BBX 9 11 0 -10
BITMAP
FE00
7F00
3180
3180
F180
7F00
3E00
3000
3000
2000
2000
ENDCHAR
STARTCHAR 227
ENCODING 227
SWIDTH 648 0
DWIDTH 9 0
BBX 9 10 0 -10
BITMAP
FE00
6F00
3980
F980
6F80
3F00
FE00
6800
3800
3800
ENDCHAR
STARTCHAR 228
ENCODING 228
SWIDTH 648 0
DWIDTH 9 0
BBX 9 11 0 -10
BITMAP
8880
4900
0000
FE00
FF00
7100
7100
7E00
6000
6000
6000
ENDCHAR
STARTCHAR 229
ENCODING 229
SWIDTH 648 0
DWIDTH 9 0
BBX 9 13 0 -10
BITMAP
1800
2480
4300
0000
FF00
7F80
3980
F980
7980
3F80
FF00
7800
3800
ENDCHAR
STARTCHAR 230
ENCODING 230
SWIDTH 648 0
DWIDTH 9 0
BBX 8 12 0 -10
BITMAP
7E
00
00
FC
7E
63
63
7E
60
60
60
40
ENDCHAR
STARTCHAR 231
ENCODING 231
SWIDTH 648 0
DWIDTH 9 0
BBX 9 12 0 -10
BITMAP
7E00
0000
FE00
7F00
3180
3180
FF00
7E00
3000
3000
3000
2000
ENDCHAR
STARTCHAR 232
ENCODING 232
SWIDTH 648 0
DWIDTH 9 0
BBX 8 13 0 -10
BITMAP
FC
7E
6F
67
63
63
7F
7E
60
60
60
E0
E0
ENDCHAR
STARTCHAR 233
ENCODING 233
SWIDTH 648 0
DWIDTH 9 0
BBX 8 11 1 -10
BITMAP
04
0C
7C
EC
C4
C4
FC
74
04
05
06
ENDCHAR
STARTCHAR 234
ENCODING 234
SWIDTH 648 0
DWIDTH 9 0
BBX 9 15 0 -11
BITMAP
8000
C000
E000
F800
FE00
E700
C180
C080
C080
C080
C480
E680
7F80
3F00
0180
ENDCHAR
STARTCHAR 235
ENCODING 235
SWIDTH 648 0
DWIDTH 9 0
BBX 9 15 0 -11
BITMAP
8080
8080
C180
FF80
FF80
E380
C080
C080
C080
C080
C480
E780
7F00
3F00
0180
ENDCHAR
STARTCHAR 236
ENCODING 236
SWIDTH 648 0
DWIDTH 9 0
BBX 9 12 0 -10
BITMAP
8C00
7F00
7180
3080
3180
3F00
3E00
3700
3300
2100
2080
2080
ENDCHAR
STARTCHAR 237
ENCODING 237
SWIDTH 648 0
DWIDTH 9 0
BBX 9 9 0 -9
BITMAP
0900
3F80
7180
7000
3E00
0700
C700
FC00
4800
ENDCHAR
STARTCHAR 238
ENCODING 238
SWIDTH 648 0
DWIDTH 9 0
BBX 9 12 0 -10
BITMAP
1F00
3F80
7180
6080
6000
3800
1F00
0100
6100
FF00
7E00
3C00
ENDCHAR
STARTCHAR 239
ENCODING 239
SWIDTH 648 0
DWIDTH 9 0
BBX 9 9 0 -9
BITMAP
2200
2200
6300
4100
C180
E380
E380
7F00
3E00
ENDCHAR
STARTCHAR 240
ENCODING 240
SWIDTH 648 0
DWIDTH 9 0
BBX 8 13 1 -10
BITMAP
80
80
87
83
C3
C3
C3
C3
C3
C3
C7
FE
3C
ENDCHAR
STARTCHAR 241
ENCODING 241
SWIDTH 648 0
DWIDTH 9 0
BBX 8 13 1 -10
BITMAP
81
81
83
C3
C3
E7
E7
C3
C3
C3
C3
7E
3C
ENDCHAR
STARTCHAR 242
ENCODING 242
SWIDTH 648 0
DWIDTH 9 0
BBX 9 15 0 -11
BITMAP
8080
8080
A280
9480
C180
C980
C980
C180
C180
C180
C180
E380
7700
3E00
1C00
ENDCHAR
STARTCHAR 243
ENCODING 243
SWIDTH 648 0
DWIDTH 9 0
BBX 9 9 0 -11
BITMAP
E180
6180
E380
6300
F780
3600
7F00
1C00
1C00
ENDCHAR
STARTCHAR 244
ENCODING 244
SWIDTH 648 0
DWIDTH 9 0
BBX 9 13 0 -11
BITMAP
5000
2500
0200
1400
C980
C180
C380
6300
F780
3600
7F00
1C00
1C00
ENDCHAR
STARTCHAR 245
ENCODING 245
SWIDTH 648 0
DWIDTH 9 0
BBX 9 12 0 -11
BITMAP
3E00
3E00
0000
C180
4180
C380
6300
F780
3600
7F00
1C00
1C00
ENDCHAR
STARTCHAR 246
ENCODING 246
SWIDTH 648 0
DWIDTH 9 0
BBX 9 8 0 -9
BITMAP
A000
E380
4180
4180
4900
6D00
3700
3200
ENDCHAR
STARTCHAR 247
ENCODING 247
SWIDTH 648 0
DWIDTH 9 0
BBX 9 14 0 -11
BITMAP
8080
8000
8100
8000
8080
C000
C100
C080
C980
DD80
F780
E380
C180
8180
ENDCHAR
STARTCHAR 248
ENCODING 248
SWIDTH 648 0
DWIDTH 9 0
BBX 9 14 0 -11
BITMAP
8000
8680
B080
8080
C080
CD80
C180
C180
4180
4980
5D80
7780
6300
4100
ENDCHAR
STARTCHAR 249
ENCODING 249
SWIDTH 648 0
DWIDTH 9 0
BBX 9 15 0 -11
BITMAP
8080
8080
8080
8080
8080
8080
C980
C980
C980
DD80
DD80
F780
E380
C180
8080
ENDCHAR
STARTCHAR 250
ENCODING 250
SWIDTH 648 0
DWIDTH 9 0
BBX 9 7 0 -9
BITMAP
7F80
C300
8600
0C00
1800
3080
7F80
ENDCHAR
STARTCHAR 251
ENCODING 251
SWIDTH 648 0
DWIDTH 9 0
BBX 7 11 1 -10
BITMAP
FE
82
82
06
0C
18
30
62
C2
FE
FE
ENDCHAR
STARTCHAR 252
ENCODING 252
SWIDTH 648 0
DWIDTH 9 0
BBX 9 11 0 -10
BITMAP
3F80
3080
FC80
7980
3300
0600
0C00
1800
3800
3F80
3F80
ENDCHAR
STARTCHAR 253
ENCODING 253
SWIDTH 648 0
DWIDTH 9 0
BBX 7 13 1 -10
BITMAP
FE
AA
56
06
0E
1E
3C
78
F0
E0
FE
AA
56
ENDCHAR
STARTCHAR 254
ENCODING 254
SWIDTH 648 0
DWIDTH 9 0
BBX 9 13 0 -10
BITMAP
FF80
7F80
3F80
0180
0380
0780
0F00
1E00
3C00
7800
FE00
FF00
FF80
ENDCHAR
STARTCHAR 255
ENCODING 255
SWIDTH 648 0
DWIDTH 9 0
BBX 9 13 0 -10
BITMAP
4300
E780
BD80
0100
0300
0600
0C00
1800
3000
6000
DE00
F380
4180
ENDCHAR
ENDFONT
